# xmcd
#
# Track frame offsets: 
#        150
#        9532
#        19825
#        31911
#        55697
#        83105
#        112892
#        138772
#        149284
#        182149
#        208789
#
# Disc length: 3100 seconds
#
# Revision: 1
# Processed by: cddbd v1.5.2PL0 Copyright (c) Steve Scherf et al.
# Submitted via: ExactAudioCopyFreeDBPlugin 1.0
#
DISCID=8a0c1a0b
DTITLE=Joe Bonamassa - An Acoustic Evening at The Vienna Opera House  
DTITLE=[CD1]
DYEAR=2013
DGENRE=Blues
TTITLE0=Arrival
TTITLE1=Palm Trees, Helicopters And Gasoline
TTITLE2=Jelly Roll
TTITLE3=Dust Bowl
TTITLE4=Around The Bend
TTITLE5=Slow Train
TTITLE6=Athens To Athens
TTITLE7=From The Valley
TTITLE8=The Ballad Of John Henry
TTITLE9=Dislocated Boy
TTITLE10=Driving Towards The Daylight
EXTD=
EXTT0=
EXTT1=
EXTT2=
EXTT3=
EXTT4=
EXTT5=
EXTT6=
EXTT7=
EXTT8=
EXTT9=
EXTT10=
PLAYORDER=
